<!-- Generated by IcoMoon.io -->
<svg version="1.1" xmlns="http://www.w3.org/2000/svg" width="24" height="24" viewBox="0 0 24 24">
<title>cast_for_education</title>
<path d="M21 3h-18q-0.844 0-1.43 0.586t-0.586 1.43v3h2.016v-3h18v13.969h-6.984v2.016h6.984q0.844 0 1.43-0.586t0.586-1.43v-13.969q0-0.844-0.586-1.43t-1.43-0.586zM0.984 18v3h3q0-0.844-0.398-1.523t-1.078-1.078-1.523-0.398zM0.984 14.016v1.969q1.406 0 2.531 0.68t1.805 1.828 0.68 2.508h2.016q0-1.453-0.563-2.719t-1.523-2.227-2.227-1.5-2.719-0.539zM0.984 9.984v2.016q1.875 0 3.516 0.703t2.859 1.945 1.922 2.859 0.703 3.492h2.016q0-2.297-0.844-4.289t-2.367-3.492-3.516-2.367-4.289-0.867zM11.016 11.109v1.969l3.469 1.922 3.516-1.922v-1.969l-3.516 1.875zM14.484 6l-5.484 3 5.484 3 5.531-3z"></path>
</svg>
