<!-- Generated by IcoMoon.io -->
<svg version="1.1" xmlns="http://www.w3.org/2000/svg" width="24" height="24" viewBox="0 0 24 24">
<title>groups</title>
<path d="M12 12.75q1.219 0 2.297 0.258t1.922 0.633 1.313 1.125 0.469 1.594v1.641h-12v-1.594q0-0.891 0.469-1.641t1.313-1.125 1.922-0.633 2.297-0.258zM3.984 12.984q0.844 0 1.43-0.586t0.586-1.383q0-0.844-0.586-1.43t-1.43-0.586q-0.797 0-1.383 0.586t-0.586 1.43q0 0.797 0.586 1.383t1.383 0.586zM5.109 14.109q-0.234-0.047-0.516-0.070t-0.609-0.023q-0.75 0-1.43 0.141t-1.336 0.422q-0.563 0.234-0.891 0.75t-0.328 1.125v1.547h4.5v-1.594q0-1.219 0.609-2.297zM20.016 12.984q0.797 0 1.383-0.586t0.586-1.383q0-0.844-0.586-1.43t-1.383-0.586q-0.844 0-1.43 0.586t-0.586 1.43q0 0.797 0.586 1.383t1.43 0.586zM24 16.453q0-0.609-0.328-1.125t-0.891-0.75q-0.656-0.281-1.336-0.422t-1.43-0.141q-0.328 0-0.609 0.023t-0.516 0.070q0.609 1.078 0.609 2.297v1.594h4.5v-1.547zM12 6q0.844 0 1.523 0.398t1.078 1.078 0.398 1.523-0.398 1.523-1.078 1.078-1.523 0.398-1.523-0.398-1.078-1.078-0.398-1.523 0.398-1.523 1.078-1.078 1.523-0.398z"></path>
</svg>
